<svg width="176" height="36" viewBox="0 0 176 36" fill="none" xmlns="http://www.w3.org/2000/svg">
<path d="M41.5956 6.46054C43.5453 6.46054 45.2038 6.83676 46.5603 7.58919C47.9168 8.34162 49.0207 9.29514 49.8829 10.4497C50.7397 11.6043 51.3548 12.8757 51.7392 14.2638C52.1236 15.6519 52.3103 16.9686 52.3103 18.2141C52.3103 19.7708 52.0467 21.2368 51.5195 22.6119C50.9923 23.987 50.2564 25.187 49.3063 26.2119C48.3562 27.2368 47.2303 28.0476 45.9288 28.6443C44.6217 29.2411 43.1938 29.5395 41.6341 29.5395C40.6346 29.5395 39.7723 29.4357 39.0474 29.2281C38.3225 29.0205 37.6909 28.7741 37.1472 28.4886C36.609 28.2032 36.1642 27.9114 35.8237 27.613C35.4832 27.3146 35.2196 27.0616 35.0328 26.8541V36H28.47V7.2H34.6374V9.57405H34.7527C35.4118 8.74378 36.296 8.0173 37.4053 7.3946C38.5147 6.77189 39.9096 6.46054 41.5956 6.46054ZM67.9678 6.46054C69.9229 6.46054 71.5759 6.83676 72.9324 7.58919C74.2889 8.34162 75.3983 9.29514 76.255 10.4497C77.1118 11.6043 77.7323 12.8757 78.1113 14.2638C78.4957 15.6519 78.6879 16.9686 78.6879 18.2141C78.6879 19.7708 78.4243 21.2368 77.8971 22.6119C77.3699 23.987 76.6285 25.187 75.6839 26.2119C74.7338 27.2368 73.6024 28.0476 72.3008 28.6443C70.9938 29.2411 69.5659 29.5395 68.0117 29.5395C67.0067 29.5395 66.1444 29.4357 65.4195 29.2281C64.6946 29.0205 64.063 28.7741 63.5248 28.4886C62.9811 28.2032 62.5418 27.9114 62.1958 27.613C61.8553 27.3146 61.5917 27.0616 61.4049 26.8541V36H54.8421V7.2H61.0095V9.57405H61.1303C61.7894 8.74378 62.6736 8.0173 63.7774 7.3946C64.8868 6.77189 66.2817 6.46054 67.9678 6.46054ZM11.0332 6.46054C11.9284 6.46054 12.7302 6.55784 13.4442 6.75243C14.1526 6.94703 14.7732 7.19351 15.3004 7.49189C15.8277 7.79027 16.2615 8.11459 16.6075 8.46486C16.948 8.81514 17.2281 9.15892 17.4368 9.49622H17.5137V7.2H24.082V28.8H17.5137V26.4649H17.4368C17.1457 26.9838 16.7778 27.4378 16.3274 27.827C15.8826 28.2162 15.3663 28.5405 14.7897 28.8C14.2075 29.0595 13.5925 29.2476 12.9499 29.3643C12.3019 29.4811 11.6648 29.5395 11.0332 29.5395C9.2923 29.5395 7.73809 29.2281 6.36511 28.6054C4.99214 27.9827 3.83884 27.1395 2.90522 26.0757C1.9716 25.0119 1.25215 23.7859 0.75239 22.3978C0.247135 21.0097 0 19.5373 0 17.9805C0 16.2162 0.302059 14.6205 0.906168 13.1935C1.51577 11.7665 2.31758 10.5535 3.3226 9.55459C4.32213 8.55568 5.48641 7.79027 6.82094 7.25838C8.14998 6.72649 9.55591 6.46054 11.0332 6.46054ZM144.959 6.49946C146.963 6.49946 148.699 6.84973 150.176 7.55027C151.653 8.25081 152.878 9.15243 153.856 10.2551C154.833 11.3578 155.564 12.5903 156.052 13.9524C156.536 15.3146 156.783 16.6573 156.783 17.9805C156.783 19.3038 156.536 20.6465 156.052 22.0086C155.564 23.3708 154.833 24.6032 153.856 25.7059C152.878 26.8086 151.653 27.7103 150.176 28.4108C148.699 29.1114 146.963 29.4616 144.959 29.4616C142.954 29.4616 141.213 29.1114 139.741 28.4108C138.264 27.7103 137.039 26.8086 136.062 25.7059C135.084 24.6032 134.354 23.3708 133.865 22.0086C133.382 20.6465 133.135 19.3038 133.135 17.9805C133.135 16.6573 133.382 15.3146 133.865 13.9524C134.354 12.5903 135.084 11.3578 136.062 10.2551C137.034 9.15243 138.264 8.25081 139.741 7.55027C141.213 6.84973 142.954 6.49946 144.959 6.49946ZM101.781 6.46054C102.83 6.46054 103.879 6.64216 104.923 7.00541C105.966 7.36865 106.79 7.80973 107.394 8.32865C107.685 8.58811 107.982 8.89297 108.284 9.24324C108.586 9.59351 108.855 10.0411 109.097 10.5859C109.333 11.1308 109.53 11.7859 109.69 12.5514C109.843 13.3168 109.926 14.2314 109.926 15.2951V28.8H103.363V17.0076C103.363 16.6184 103.341 16.1708 103.303 15.6649C103.264 15.1589 103.138 14.6724 102.924 14.2054C102.715 13.7384 102.38 13.3427 101.919 13.0184C101.457 12.6941 100.793 12.5319 99.9196 12.5319C98.9695 12.5319 98.2446 12.707 97.7448 13.0573C97.2451 13.4076 96.8771 13.8227 96.641 14.3027C96.3993 14.7827 96.262 15.2757 96.2236 15.7816C96.1851 16.2876 96.1632 16.7092 96.1632 17.0465V28.8H89.6003V7.2H95.7293V9.49622H95.8062C95.9655 9.23676 96.1851 8.93189 96.4597 8.58162C96.7398 8.23135 97.1078 7.90054 97.5691 7.58919C98.0304 7.27784 98.6016 7.01189 99.2881 6.79135C99.9745 6.57081 100.804 6.46054 101.781 6.46054ZM133.492 6.46054V12.96C132.728 12.9859 132.031 13.0508 131.394 13.1546C130.762 13.2584 130.218 13.453 129.752 13.7384C129.296 14.0238 128.939 14.4259 128.686 14.9449C128.439 15.4638 128.313 16.1254 128.313 16.9297V28.8H121.75V7.2H127.917V9.49622H127.994C128.126 9.23676 128.313 8.93189 128.549 8.58162C128.785 8.23135 129.109 7.90054 129.515 7.58919C129.927 7.27784 130.455 7.01189 131.097 6.79135C131.745 6.57081 132.541 6.46054 133.492 6.46054ZM165.878 0V28.8H159.315V0H165.878ZM176 0V28.8H169.436V0H176ZM11.9778 12.493C11.0332 12.493 10.2204 12.6681 9.55042 13.0184C8.87491 13.3687 8.31474 13.8162 7.86989 14.3611C7.41956 14.9059 7.09004 15.5027 6.87586 16.1514C6.66717 16.8 6.56282 17.4357 6.56282 18.0584C6.56282 18.5773 6.66167 19.1481 6.85938 19.7708C7.05709 20.3935 7.37562 20.9838 7.80948 21.5416C8.24334 22.0995 8.80351 22.5665 9.49 22.9427C10.171 23.3189 11.0168 23.507 12.0218 23.507C13.0488 23.507 13.911 23.3189 14.6085 22.9427C15.3059 22.5665 15.8771 22.0995 16.3109 21.5416C16.7448 20.9838 17.0523 20.3805 17.2391 19.7319C17.4203 19.0832 17.5137 18.4995 17.5137 17.9805C17.5137 17.3319 17.4038 16.6832 17.1787 16.0346C16.9535 15.3859 16.613 14.7957 16.1517 14.2638C15.6904 13.7319 15.1082 13.3038 14.4107 12.9795C13.7133 12.6551 12.9005 12.493 11.9778 12.493ZM40.2501 12.493C39.355 12.493 38.5641 12.6616 37.8776 12.9989C37.1911 13.3362 36.62 13.7708 36.1587 14.3027C35.6973 14.8346 35.3514 15.4249 35.1097 16.0735C34.8736 16.7222 34.7527 17.3708 34.7527 18.0195C34.7527 18.6941 34.879 19.3622 35.1317 20.0238C35.3843 20.6854 35.7468 21.2757 36.2191 21.7946C36.6914 22.3135 37.268 22.7286 37.938 23.04C38.6135 23.3513 39.3824 23.507 40.2501 23.507C41.1233 23.507 41.8922 23.3513 42.5622 23.04C43.2377 22.7286 43.8089 22.3135 44.2867 21.7946C44.759 21.2757 45.1214 20.6854 45.3741 20.0238C45.6212 19.3622 45.7475 18.6941 45.7475 18.0195C45.7475 17.3708 45.6322 16.7222 45.3906 16.0735C45.1544 15.4249 44.8084 14.8346 44.3416 14.3027C43.8858 13.7708 43.3091 13.3362 42.6226 12.9989C41.9416 12.6616 41.1508 12.493 40.2501 12.493ZM66.6277 12.493C65.7325 12.493 64.9362 12.6616 64.2552 12.9989C63.5687 13.3362 62.9976 13.7708 62.5363 14.3027C62.0694 14.8346 61.7235 15.4249 61.4873 16.0735C61.2457 16.7222 61.1303 17.3708 61.1303 18.0195C61.1303 18.6941 61.2566 19.3622 61.5038 20.0238C61.7564 20.6854 62.1189 21.2757 62.5912 21.7946C63.069 22.3135 63.6401 22.7286 64.3156 23.04C64.9856 23.3513 65.7545 23.507 66.6277 23.507C67.4954 23.507 68.2698 23.3513 68.9398 23.04C69.6098 22.7286 70.1865 22.3135 70.6588 21.7946C71.1311 21.2757 71.499 20.6854 71.7462 20.0238C71.9988 19.3622 72.1251 18.6941 72.1251 18.0195C72.1251 17.3708 72.0043 16.7222 71.7681 16.0735C71.5265 15.4249 71.1805 14.8346 70.7192 14.3027C70.2579 13.7708 69.6867 13.3362 69.0002 12.9989C68.3137 12.6616 67.5229 12.493 66.6277 12.493ZM144.959 12.5319C144.245 12.5319 143.575 12.6681 142.943 12.9405C142.312 13.213 141.751 13.5892 141.263 14.0692C140.774 14.5492 140.389 15.1265 140.115 15.8011C139.84 16.4757 139.697 17.2022 139.697 17.9805C139.697 18.7589 139.84 19.4854 140.115 20.16C140.389 20.8346 140.774 21.4119 141.263 21.8919C141.751 22.3719 142.312 22.7481 142.943 23.0205C143.575 23.293 144.245 23.4292 144.959 23.4292C145.667 23.4292 146.343 23.293 146.974 23.0205C147.606 22.7481 148.166 22.3719 148.655 21.8919C149.144 21.4119 149.522 20.8346 149.803 20.16C150.077 19.4854 150.214 18.7589 150.214 17.9805C150.214 17.2022 150.077 16.4757 149.803 15.8011C149.528 15.1265 149.144 14.5492 148.655 14.0692C148.166 13.5892 147.606 13.213 146.974 12.9405C146.343 12.6681 145.673 12.5319 144.959 12.5319ZM87.0686 0L85.7231 11.5589H81.4943L80.1872 0H87.0686ZM119.257 0L117.911 11.5589H113.682L112.375 0H119.257Z" fill="black"/>
</svg>
